<svg xmlns="http://www.w3.org/2000/svg" xmlns:xlink="http://www.w3.org/1999/xlink" viewBox="0,0,256,256" width="24px" height="24px" fill-rule="nonzero"><g fill="#958b8b" fill-rule="nonzero" stroke="none" stroke-width="1" stroke-linecap="butt" stroke-linejoin="miter" stroke-miterlimit="10" stroke-dasharray="" stroke-dashoffset="0" font-family="none" font-weight="normal" font-size="13" text-anchor="none" style="mix-blend-mode: normal"><g transform="scale(10.66667,10.66667)"><path d="M4,4c-1.0958,0 -2,0.9042 -2,2v12c0,1.0958 0.9042,2 2,2h16c1.0958,0 2,-0.9042 2,-2v-12c0,-1.0958 -0.9042,-2 -2,-2zM4,5.5h16c0.2842,0 0.5,0.2158 0.5,0.5v11.06055l-5.96875,-5.9707c-0.141,-0.14094 -0.3323,-0.21995 -0.53166,-0.21958c-0.19936,0.00037 -0.39037,0.08008 -0.53084,0.22154l-1.47656,1.48438l-2.46094,-2.46094c-0.14357,-0.14416 -0.33954,-0.22382 -0.54297,-0.2207c-0.19531,0.00311 -0.3817,0.08229 -0.51953,0.2207l-4.96875,4.96875v-9.08398c0,-0.2842 0.2158,-0.5 0.5,-0.5zM18,7c-0.55228,0 -1,0.44772 -1,1c0,0.55228 0.44772,1 1,1c0.55228,0 1,-0.44772 1,-1c0,-0.55228 -0.44772,-1 -1,-1zM9,11.70703l4.51758,4.51563c0.18811,0.19592 0.46745,0.27484 0.73028,0.20633c0.26283,-0.06852 0.46808,-0.27377 0.5366,-0.5366c0.06852,-0.26283 -0.0104,-0.54216 -0.20633,-0.73028l-1.52539,-1.52539l0.94727,-0.95508l5.81836,5.81836h-15.81836c-0.2842,0 -0.5,-0.2158 -0.5,-0.5v-0.79492z"></path></g></g></svg>